<?xml version="1.0" standalone="no"?>
<svg xmlns:xlink="http://www.w3.org/1999/xlink" id="wave" style="transform:rotate(180deg); transition: 0.3s" viewBox="0 0 1440 100" version="1.1" xmlns="http://www.w3.org/2000/svg"><defs><linearGradient id="sw-gradient-0" x1="0" x2="0" y1="1" y2="0"><stop stop-color="rgba(255, 249, 234, 1)" offset="0%"/><stop stop-color="rgba(255, 249, 234, 1)" offset="100%"/></linearGradient></defs><path style="transform:translate(0, 0px); opacity:1" fill="url(#sw-gradient-0)" d="M0,30L60,33.3C120,37,240,43,360,46.7C480,50,600,50,720,41.7C840,33,960,17,1080,23.3C1200,30,1320,60,1440,65C1560,70,1680,50,1800,40C1920,30,2040,30,2160,35C2280,40,2400,50,2520,60C2640,70,2760,80,2880,76.7C3000,73,3120,57,3240,53.3C3360,50,3480,60,3600,65C3720,70,3840,70,3960,60C4080,50,4200,30,4320,20C4440,10,4560,10,4680,16.7C4800,23,4920,37,5040,41.7C5160,47,5280,43,5400,40C5520,37,5640,33,5760,40C5880,47,6000,63,6120,71.7C6240,80,6360,80,6480,66.7C6600,53,6720,27,6840,15C6960,3,7080,7,7200,6.7C7320,7,7440,3,7560,13.3C7680,23,7800,47,7920,46.7C8040,47,8160,23,8280,25C8400,27,8520,53,8580,66.7L8640,80L8640,100L8580,100C8520,100,8400,100,8280,100C8160,100,8040,100,7920,100C7800,100,7680,100,7560,100C7440,100,7320,100,7200,100C7080,100,6960,100,6840,100C6720,100,6600,100,6480,100C6360,100,6240,100,6120,100C6000,100,5880,100,5760,100C5640,100,5520,100,5400,100C5280,100,5160,100,5040,100C4920,100,4800,100,4680,100C4560,100,4440,100,4320,100C4200,100,4080,100,3960,100C3840,100,3720,100,3600,100C3480,100,3360,100,3240,100C3120,100,3000,100,2880,100C2760,100,2640,100,2520,100C2400,100,2280,100,2160,100C2040,100,1920,100,1800,100C1680,100,1560,100,1440,100C1320,100,1200,100,1080,100C960,100,840,100,720,100C600,100,480,100,360,100C240,100,120,100,60,100L0,100Z"/></svg>